<?xml version="1.0" standalone="no"?>
<!DOCTYPE svg PUBLIC "-//W3C//DTD SVG 20010904//EN"
 "http://www.w3.org/TR/2001/REC-SVG-20010904/DTD/svg10.dtd">
<svg version="1.0" xmlns="http://www.w3.org/2000/svg"
 width="614.000000pt" height="614.000000pt" viewBox="0 0 614.000000 614.000000"
 preserveAspectRatio="xMidYMid meet">
<metadata>
Created by potrace 1.11, written by Peter Selinger 2001-2013
</metadata>
<g transform="translate(0.000000,614.000000) scale(0.100000,-0.100000)"
fill="#000000" stroke="none">
<path d="M3033 6013 c-16 -32 -51 -101 -77 -153 -26 -52 -51 -102 -56 -110 -4
-8 -72 -141 -150 -295 -79 -154 -178 -347 -220 -430 -43 -82 -153 -298 -245
-480 -92 -181 -225 -442 -295 -580 -70 -137 -187 -367 -260 -510 -73 -143
-191 -375 -262 -515 -290 -568 -382 -749 -533 -1045 -149 -293 -167 -329 -186
-365 -4 -8 -61 -121 -127 -250 -66 -129 -153 -300 -194 -380 -40 -80 -75 -147
-78 -150 -3 -3 -45 -84 -93 -180 -49 -96 -121 -238 -160 -315 -39 -77 -77
-152 -84 -167 l-12 -28 3065 0 c1685 0 3064 4 3064 8 0 7 -19 45 -187 372
-169 329 -304 592 -463 905 -84 165 -210 413 -280 550 -70 138 -192 376 -270
530 -78 154 -199 390 -267 525 -299 586 -673 1319 -685 1343 -4 9 -13 27 -20
40 -6 12 -61 119 -121 237 -115 226 -257 504 -528 1035 -90 176 -179 353 -198
393 -20 39 -39 72 -42 72 -4 0 -20 -26 -36 -57z m99 -1676 c50 -22 261 -240
487 -502 244 -283 448 -676 496 -954 3 -19 8 -37 10 -40 4 -7 9 -46 21 -166
18 -179 6 -413 -30 -620 l-15 -80 40 -58 c49 -70 99 -176 138 -294 31 -90 76
-261 86 -323 3 -19 10 -57 15 -85 23 -122 34 -204 35 -262 0 -24 2 -43 6 -43
3 0 6 -19 8 -41 l2 -41 -73 6 c-40 3 -86 8 -103 11 -16 2 -59 7 -95 10 -36 3
-76 7 -90 10 -14 2 -47 6 -75 9 -27 3 -63 8 -80 10 -16 3 -43 7 -60 10 -16 3
-39 7 -50 9 -11 2 -40 7 -65 11 l-46 7 -71 -113 c-39 -62 -85 -132 -103 -156
-52 -73 -60 -74 -429 -75 -180 0 -347 3 -372 7 -32 5 -56 16 -79 39 -35 34
-120 159 -166 245 l-29 53 -45 -7 c-25 -4 -53 -7 -62 -8 -10 0 -18 -4 -18 -9
0 -4 -4 -6 -9 -3 -5 3 -33 2 -62 -4 -30 -5 -74 -11 -99 -14 -25 -3 -79 -10
-120 -15 -218 -28 -326 -33 -323 -16 0 6 4 39 7 75 7 79 13 123 27 215 16 102
16 108 23 135 3 14 8 36 10 50 9 49 36 158 57 225 11 37 22 75 24 84 13 60 95
229 143 295 l35 48 -12 82 c-7 44 -15 92 -17 106 -14 79 -19 164 -19 320 0
218 11 324 46 454 6 23 12 48 14 56 22 107 117 325 212 485 57 96 228 334 262
365 4 3 35 39 71 80 142 165 365 392 405 413 36 19 99 21 137 4z"/>
<path d="M3048 2984 c-3 -3 -18 -7 -34 -10 -49 -9 -114 -46 -150 -87 -106
-117 -102 -287 10 -399 196 -196 529 -18 483 258 -21 120 -127 219 -246 231
-24 2 -47 6 -51 8 -4 2 -10 2 -12 -1z"/>
</g>
</svg>
